<mxfile host="app.diagrams.net" agent="Mozilla/5.0 (Windows NT 10.0; Win64; x64) AppleWebKit/537.36 (KHTML, like Gecko) Chrome/140.0.0.0 Safari/537.36" version="28.2.5">
  <diagram name="PÃ¡gina-1" id="VtdL2N_naWI-DeJkXuc9">
    <mxGraphModel dx="2013" dy="703" grid="1" gridSize="10" guides="1" tooltips="1" connect="1" arrows="1" fold="1" page="1" pageScale="1" pageWidth="827" pageHeight="1169" math="0" shadow="0">
      <root>
        <mxCell id="0" />
        <mxCell id="1" parent="0" />
        <mxCell id="wNUU-mUBWav2Mn1h4RWF-6" style="rounded=0;orthogonalLoop=1;jettySize=auto;html=1;endArrow=none;endFill=0;" edge="1" parent="1" source="wNUU-mUBWav2Mn1h4RWF-1" target="wNUU-mUBWav2Mn1h4RWF-4">
          <mxGeometry relative="1" as="geometry" />
        </mxCell>
        <mxCell id="wNUU-mUBWav2Mn1h4RWF-7" style="edgeStyle=none;shape=connector;rounded=0;orthogonalLoop=1;jettySize=auto;html=1;strokeColor=default;align=center;verticalAlign=middle;fontFamily=Helvetica;fontSize=11;fontColor=default;labelBackgroundColor=default;endArrow=none;endFill=0;" edge="1" parent="1" source="wNUU-mUBWav2Mn1h4RWF-1" target="wNUU-mUBWav2Mn1h4RWF-2">
          <mxGeometry relative="1" as="geometry" />
        </mxCell>
        <mxCell id="wNUU-mUBWav2Mn1h4RWF-8" style="edgeStyle=none;shape=connector;rounded=0;orthogonalLoop=1;jettySize=auto;html=1;strokeColor=default;align=center;verticalAlign=middle;fontFamily=Helvetica;fontSize=11;fontColor=default;labelBackgroundColor=default;endArrow=none;endFill=0;" edge="1" parent="1" source="wNUU-mUBWav2Mn1h4RWF-1" target="wNUU-mUBWav2Mn1h4RWF-3">
          <mxGeometry relative="1" as="geometry" />
        </mxCell>
        <mxCell id="wNUU-mUBWav2Mn1h4RWF-9" style="edgeStyle=none;shape=connector;rounded=0;orthogonalLoop=1;jettySize=auto;html=1;strokeColor=default;align=center;verticalAlign=middle;fontFamily=Helvetica;fontSize=11;fontColor=default;labelBackgroundColor=default;endArrow=none;endFill=0;" edge="1" parent="1" source="wNUU-mUBWav2Mn1h4RWF-1" target="wNUU-mUBWav2Mn1h4RWF-5">
          <mxGeometry relative="1" as="geometry" />
        </mxCell>
        <mxCell id="wNUU-mUBWav2Mn1h4RWF-1" value="&lt;span style=&quot;font-size:12.0pt;font-family:&amp;quot;Calibri&amp;quot;,sans-serif;&lt;br/&gt;mso-fareast-font-family:Calibri;mso-ansi-language:PT;mso-fareast-language:PT;&lt;br/&gt;mso-bidi-language:AR-SA&quot;&gt;FILME&lt;/span&gt;&lt;span style=&quot;font-family: Calibri, sans-serif; font-size: 12pt; background-color: transparent; color: light-dark(rgb(0, 0, 0), rgb(255, 255, 255));&quot;&gt;&amp;nbsp;&lt;/span&gt;" style="whiteSpace=wrap;html=1;align=center;" vertex="1" parent="1">
          <mxGeometry x="250" y="170" width="100" height="40" as="geometry" />
        </mxCell>
        <mxCell id="wNUU-mUBWav2Mn1h4RWF-2" value="&lt;u&gt;&lt;span style=&quot;font-size:12.0pt;font-family:&amp;quot;Calibri&amp;quot;,sans-serif;&lt;br/&gt;mso-fareast-font-family:Calibri;mso-ansi-language:PT;mso-fareast-language:PT;&lt;br/&gt;mso-bidi-language:AR-SA&quot;&gt;Codigo&lt;/span&gt;&lt;/u&gt;" style="ellipse;whiteSpace=wrap;html=1;align=center;fontStyle=4;" vertex="1" parent="1">
          <mxGeometry x="130" y="110" width="100" height="40" as="geometry" />
        </mxCell>
        <mxCell id="wNUU-mUBWav2Mn1h4RWF-3" value="&lt;span style=&quot;font-size:12.0pt;font-family:&amp;quot;Calibri&amp;quot;,sans-serif;&lt;br/&gt;mso-fareast-font-family:Calibri;mso-ansi-language:PT;mso-fareast-language:PT;&lt;br/&gt;mso-bidi-language:AR-SA&quot;&gt;Titulo&lt;/span&gt;" style="ellipse;whiteSpace=wrap;html=1;align=center;" vertex="1" parent="1">
          <mxGeometry x="240" y="100" width="100" height="40" as="geometry" />
        </mxCell>
        <mxCell id="wNUU-mUBWav2Mn1h4RWF-4" value="&lt;span style=&quot;font-size:12.0pt;font-family:&amp;quot;Calibri&amp;quot;,sans-serif;&lt;br/&gt;mso-fareast-font-family:Calibri;mso-ansi-language:PT;mso-fareast-language:PT;&lt;br/&gt;mso-bidi-language:AR-SA&quot;&gt;Ano&lt;/span&gt;" style="ellipse;whiteSpace=wrap;html=1;align=center;" vertex="1" parent="1">
          <mxGeometry x="350" y="100" width="100" height="40" as="geometry" />
        </mxCell>
        <mxCell id="wNUU-mUBWav2Mn1h4RWF-5" value="&lt;span style=&quot;font-size:12.0pt;font-family:&amp;quot;Calibri&amp;quot;,sans-serif;&lt;br/&gt;mso-fareast-font-family:Calibri;mso-ansi-language:PT;mso-fareast-language:PT;&lt;br/&gt;mso-bidi-language:AR-SA&quot;&gt;Direcao&lt;/span&gt;" style="ellipse;whiteSpace=wrap;html=1;align=center;" vertex="1" parent="1">
          <mxGeometry x="414" y="140" width="100" height="40" as="geometry" />
        </mxCell>
        <mxCell id="wNUU-mUBWav2Mn1h4RWF-16" style="edgeStyle=none;shape=connector;rounded=0;orthogonalLoop=1;jettySize=auto;html=1;strokeColor=default;align=center;verticalAlign=middle;fontFamily=Helvetica;fontSize=11;fontColor=default;labelBackgroundColor=default;endArrow=none;endFill=0;" edge="1" parent="1" source="wNUU-mUBWav2Mn1h4RWF-10" target="wNUU-mUBWav2Mn1h4RWF-11">
          <mxGeometry relative="1" as="geometry" />
        </mxCell>
        <mxCell id="wNUU-mUBWav2Mn1h4RWF-17" style="edgeStyle=none;shape=connector;rounded=0;orthogonalLoop=1;jettySize=auto;html=1;strokeColor=default;align=center;verticalAlign=middle;fontFamily=Helvetica;fontSize=11;fontColor=default;labelBackgroundColor=default;endArrow=none;endFill=0;" edge="1" parent="1" source="wNUU-mUBWav2Mn1h4RWF-10" target="wNUU-mUBWav2Mn1h4RWF-12">
          <mxGeometry relative="1" as="geometry" />
        </mxCell>
        <mxCell id="wNUU-mUBWav2Mn1h4RWF-18" style="edgeStyle=none;shape=connector;rounded=0;orthogonalLoop=1;jettySize=auto;html=1;strokeColor=default;align=center;verticalAlign=middle;fontFamily=Helvetica;fontSize=11;fontColor=default;labelBackgroundColor=default;endArrow=none;endFill=0;" edge="1" parent="1" source="wNUU-mUBWav2Mn1h4RWF-10" target="wNUU-mUBWav2Mn1h4RWF-14">
          <mxGeometry relative="1" as="geometry" />
        </mxCell>
        <mxCell id="wNUU-mUBWav2Mn1h4RWF-19" style="edgeStyle=none;shape=connector;rounded=0;orthogonalLoop=1;jettySize=auto;html=1;strokeColor=default;align=center;verticalAlign=middle;fontFamily=Helvetica;fontSize=11;fontColor=default;labelBackgroundColor=default;endArrow=none;endFill=0;" edge="1" parent="1" source="wNUU-mUBWav2Mn1h4RWF-10" target="wNUU-mUBWav2Mn1h4RWF-15">
          <mxGeometry relative="1" as="geometry" />
        </mxCell>
        <mxCell id="wNUU-mUBWav2Mn1h4RWF-20" style="edgeStyle=none;shape=connector;rounded=0;orthogonalLoop=1;jettySize=auto;html=1;strokeColor=default;align=center;verticalAlign=middle;fontFamily=Helvetica;fontSize=11;fontColor=default;labelBackgroundColor=default;endArrow=none;endFill=0;dashed=1;" edge="1" parent="1" source="wNUU-mUBWav2Mn1h4RWF-10" target="wNUU-mUBWav2Mn1h4RWF-13">
          <mxGeometry relative="1" as="geometry" />
        </mxCell>
        <mxCell id="wNUU-mUBWav2Mn1h4RWF-10" value="&lt;span style=&quot;font-size:12.0pt;font-family:&amp;quot;Calibri&amp;quot;,sans-serif;&lt;br/&gt;mso-fareast-font-family:Calibri;mso-ansi-language:PT;mso-fareast-language:PT;&lt;br/&gt;mso-bidi-language:AR-SA&quot;&gt;ATOR&amp;nbsp;&lt;/span&gt;" style="whiteSpace=wrap;html=1;align=center;fontFamily=Helvetica;fontSize=11;fontColor=default;labelBackgroundColor=default;" vertex="1" parent="1">
          <mxGeometry x="540" y="350" width="100" height="40" as="geometry" />
        </mxCell>
        <mxCell id="wNUU-mUBWav2Mn1h4RWF-11" value="&lt;span id=&quot;docs-internal-guid-0371ab49-7fff-979e-7067-7fa7ec2a6fb4&quot;&gt;&lt;span style=&quot;font-size: 12pt; font-family: Calibri, sans-serif; background-color: transparent; font-variant-numeric: normal; font-variant-east-asian: normal; font-variant-alternates: normal; font-variant-position: normal; font-variant-emoji: normal; vertical-align: baseline; white-space-collapse: preserve;&quot;&gt;Nome&lt;/span&gt;&lt;/span&gt;" style="ellipse;whiteSpace=wrap;html=1;align=center;fontFamily=Helvetica;fontSize=11;fontColor=default;labelBackgroundColor=default;" vertex="1" parent="1">
          <mxGeometry x="610" y="250" width="100" height="40" as="geometry" />
        </mxCell>
        <mxCell id="wNUU-mUBWav2Mn1h4RWF-12" value="&lt;span id=&quot;docs-internal-guid-423bd657-7fff-b02a-c126-72abb22664c3&quot;&gt;&lt;span style=&quot;font-size: 12pt; font-family: Calibri, sans-serif; background-color: transparent; font-variant-numeric: normal; font-variant-east-asian: normal; font-variant-alternates: normal; font-variant-position: normal; font-variant-emoji: normal; vertical-align: baseline; white-space-collapse: preserve;&quot;&gt;DataNascimento&lt;/span&gt;&lt;/span&gt;" style="ellipse;whiteSpace=wrap;html=1;align=center;fontFamily=Helvetica;fontSize=11;fontColor=default;labelBackgroundColor=default;" vertex="1" parent="1">
          <mxGeometry x="700" y="280" width="100" height="40" as="geometry" />
        </mxCell>
        <mxCell id="wNUU-mUBWav2Mn1h4RWF-13" value="&lt;span id=&quot;docs-internal-guid-ad1e4011-7fff-cea9-0ab7-0518d352ea27&quot;&gt;&lt;span style=&quot;font-size: 12pt; font-family: Calibri, sans-serif; background-color: transparent; font-variant-numeric: normal; font-variant-east-asian: normal; font-variant-alternates: normal; font-variant-position: normal; font-variant-emoji: normal; vertical-align: baseline; white-space-collapse: preserve;&quot;&gt;Idade&lt;/span&gt;&lt;/span&gt;" style="ellipse;whiteSpace=wrap;html=1;align=center;dashed=1;fontFamily=Helvetica;fontSize=11;fontColor=default;labelBackgroundColor=default;" vertex="1" parent="1">
          <mxGeometry x="720" y="330" width="100" height="40" as="geometry" />
        </mxCell>
        <mxCell id="wNUU-mUBWav2Mn1h4RWF-14" value="&lt;span id=&quot;docs-internal-guid-ade6428c-7fff-1b37-59b0-372400b72374&quot;&gt;&lt;span style=&quot;font-size: 12pt; font-family: Calibri, sans-serif; background-color: transparent; font-variant-numeric: normal; font-variant-east-asian: normal; font-variant-alternates: normal; font-variant-position: normal; font-variant-emoji: normal; vertical-align: baseline; white-space-collapse: preserve;&quot;&gt;Salario&lt;/span&gt;&lt;/span&gt;" style="ellipse;whiteSpace=wrap;html=1;align=center;fontFamily=Helvetica;fontSize=11;fontColor=default;labelBackgroundColor=default;" vertex="1" parent="1">
          <mxGeometry x="710" y="380" width="100" height="40" as="geometry" />
        </mxCell>
        <mxCell id="wNUU-mUBWav2Mn1h4RWF-15" value="&lt;span id=&quot;docs-internal-guid-d451ba34-7fff-3efa-a5a5-dec27b78d718&quot;&gt;&lt;span style=&quot;font-size: 12pt; font-family: Calibri, sans-serif; background-color: transparent; font-variant-numeric: normal; font-variant-east-asian: normal; font-variant-alternates: normal; font-variant-position: normal; font-variant-emoji: normal; text-decoration-skip-ink: none; vertical-align: baseline; white-space-collapse: preserve;&quot;&gt;NContribuinte&lt;/span&gt;&lt;/span&gt;" style="ellipse;whiteSpace=wrap;html=1;align=center;fontStyle=4;fontFamily=Helvetica;fontSize=11;fontColor=default;labelBackgroundColor=default;" vertex="1" parent="1">
          <mxGeometry x="640" y="420" width="100" height="40" as="geometry" />
        </mxCell>
        <mxCell id="wNUU-mUBWav2Mn1h4RWF-28" style="edgeStyle=none;shape=connector;rounded=0;orthogonalLoop=1;jettySize=auto;html=1;strokeColor=default;align=center;verticalAlign=middle;fontFamily=Helvetica;fontSize=11;fontColor=default;labelBackgroundColor=default;endArrow=none;endFill=0;" edge="1" parent="1" source="wNUU-mUBWav2Mn1h4RWF-21" target="wNUU-mUBWav2Mn1h4RWF-22">
          <mxGeometry relative="1" as="geometry" />
        </mxCell>
        <mxCell id="wNUU-mUBWav2Mn1h4RWF-29" style="edgeStyle=none;shape=connector;rounded=0;orthogonalLoop=1;jettySize=auto;html=1;strokeColor=default;align=center;verticalAlign=middle;fontFamily=Helvetica;fontSize=11;fontColor=default;labelBackgroundColor=default;endArrow=none;endFill=0;" edge="1" parent="1" source="wNUU-mUBWav2Mn1h4RWF-21" target="wNUU-mUBWav2Mn1h4RWF-26">
          <mxGeometry relative="1" as="geometry" />
        </mxCell>
        <mxCell id="wNUU-mUBWav2Mn1h4RWF-30" style="edgeStyle=none;shape=connector;rounded=0;orthogonalLoop=1;jettySize=auto;html=1;strokeColor=default;align=center;verticalAlign=middle;fontFamily=Helvetica;fontSize=11;fontColor=default;labelBackgroundColor=default;endArrow=none;endFill=0;" edge="1" parent="1" source="wNUU-mUBWav2Mn1h4RWF-21" target="wNUU-mUBWav2Mn1h4RWF-25">
          <mxGeometry relative="1" as="geometry" />
        </mxCell>
        <mxCell id="wNUU-mUBWav2Mn1h4RWF-31" style="edgeStyle=none;shape=connector;rounded=0;orthogonalLoop=1;jettySize=auto;html=1;strokeColor=default;align=center;verticalAlign=middle;fontFamily=Helvetica;fontSize=11;fontColor=default;labelBackgroundColor=default;endArrow=none;endFill=0;dashed=1;" edge="1" parent="1" source="wNUU-mUBWav2Mn1h4RWF-21" target="wNUU-mUBWav2Mn1h4RWF-24">
          <mxGeometry relative="1" as="geometry" />
        </mxCell>
        <mxCell id="wNUU-mUBWav2Mn1h4RWF-21" value="&lt;span id=&quot;docs-internal-guid-4d61b85c-7fff-92f9-6b1c-4a9c9fdcd876&quot;&gt;&lt;span style=&quot;font-size: 12pt; font-family: Calibri, sans-serif; background-color: transparent; font-variant-numeric: normal; font-variant-east-asian: normal; font-variant-alternates: normal; font-variant-position: normal; font-variant-emoji: normal; vertical-align: baseline; white-space-collapse: preserve;&quot;&gt;REALIZADOR&lt;/span&gt;&lt;/span&gt;" style="whiteSpace=wrap;html=1;align=center;fontFamily=Helvetica;fontSize=11;fontColor=default;labelBackgroundColor=default;" vertex="1" parent="1">
          <mxGeometry x="-120" y="230" width="100" height="40" as="geometry" />
        </mxCell>
        <mxCell id="wNUU-mUBWav2Mn1h4RWF-22" value="&lt;span id=&quot;docs-internal-guid-69654a7a-7fff-adb6-9b58-9ac397884187&quot;&gt;&lt;span style=&quot;font-size: 12pt; font-family: Calibri, sans-serif; background-color: transparent; font-variant-numeric: normal; font-variant-east-asian: normal; font-variant-alternates: normal; font-variant-position: normal; font-variant-emoji: normal; vertical-align: baseline; white-space-collapse: preserve;&quot;&gt;Nome&lt;/span&gt;&lt;/span&gt;" style="ellipse;whiteSpace=wrap;html=1;align=center;fontFamily=Helvetica;fontSize=11;fontColor=default;labelBackgroundColor=default;" vertex="1" parent="1">
          <mxGeometry x="-120" y="160" width="100" height="40" as="geometry" />
        </mxCell>
        <mxCell id="wNUU-mUBWav2Mn1h4RWF-24" value="&lt;span id=&quot;docs-internal-guid-ad1e4011-7fff-cea9-0ab7-0518d352ea27&quot;&gt;&lt;span style=&quot;font-size: 12pt; font-family: Calibri, sans-serif; background-color: transparent; font-variant-numeric: normal; font-variant-east-asian: normal; font-variant-alternates: normal; font-variant-position: normal; font-variant-emoji: normal; vertical-align: baseline; white-space-collapse: preserve;&quot;&gt;Idade&lt;/span&gt;&lt;/span&gt;" style="ellipse;whiteSpace=wrap;html=1;align=center;dashed=1;fontFamily=Helvetica;fontSize=11;fontColor=default;labelBackgroundColor=default;" vertex="1" parent="1">
          <mxGeometry x="-240" y="280" width="100" height="40" as="geometry" />
        </mxCell>
        <mxCell id="wNUU-mUBWav2Mn1h4RWF-25" value="&lt;span id=&quot;docs-internal-guid-f85e6acb-7fff-e787-be61-acb34c5c2e45&quot;&gt;&lt;span style=&quot;font-size: 12pt; font-family: Calibri, sans-serif; background-color: transparent; font-variant-numeric: normal; font-variant-east-asian: normal; font-variant-alternates: normal; font-variant-position: normal; font-variant-emoji: normal; vertical-align: baseline; white-space-collapse: preserve;&quot;&gt;DataNascimento&lt;/span&gt;&lt;/span&gt;" style="ellipse;whiteSpace=wrap;html=1;align=center;fontFamily=Helvetica;fontSize=11;fontColor=default;labelBackgroundColor=default;" vertex="1" parent="1">
          <mxGeometry x="-270" y="230" width="100" height="40" as="geometry" />
        </mxCell>
        <mxCell id="wNUU-mUBWav2Mn1h4RWF-26" value="&lt;span id=&quot;docs-internal-guid-25c2a6f1-7fff-cd19-373f-aac201a6bc62&quot;&gt;&lt;span style=&quot;font-size: 12pt; font-family: Calibri, sans-serif; background-color: transparent; font-variant-numeric: normal; font-variant-east-asian: normal; font-variant-alternates: normal; font-variant-position: normal; font-variant-emoji: normal; text-decoration-skip-ink: none; vertical-align: baseline; white-space-collapse: preserve;&quot;&gt;NContribuinte&lt;/span&gt;&lt;/span&gt;" style="ellipse;whiteSpace=wrap;html=1;align=center;fontStyle=4;fontFamily=Helvetica;fontSize=11;fontColor=default;labelBackgroundColor=default;" vertex="1" parent="1">
          <mxGeometry x="-230" y="180" width="100" height="40" as="geometry" />
        </mxCell>
        <mxCell id="wNUU-mUBWav2Mn1h4RWF-27" style="edgeStyle=none;shape=connector;rounded=0;orthogonalLoop=1;jettySize=auto;html=1;exitX=0.5;exitY=1;exitDx=0;exitDy=0;strokeColor=default;align=center;verticalAlign=middle;fontFamily=Helvetica;fontSize=11;fontColor=default;labelBackgroundColor=default;endArrow=none;endFill=0;" edge="1" parent="1" source="wNUU-mUBWav2Mn1h4RWF-25" target="wNUU-mUBWav2Mn1h4RWF-25">
          <mxGeometry relative="1" as="geometry" />
        </mxCell>
        <mxCell id="wNUU-mUBWav2Mn1h4RWF-39" style="edgeStyle=none;shape=connector;rounded=0;orthogonalLoop=1;jettySize=auto;html=1;strokeColor=default;align=center;verticalAlign=middle;fontFamily=Helvetica;fontSize=11;fontColor=default;labelBackgroundColor=default;endArrow=none;endFill=0;" edge="1" parent="1" source="wNUU-mUBWav2Mn1h4RWF-33" target="wNUU-mUBWav2Mn1h4RWF-35">
          <mxGeometry relative="1" as="geometry" />
        </mxCell>
        <mxCell id="wNUU-mUBWav2Mn1h4RWF-40" style="edgeStyle=none;shape=connector;rounded=0;orthogonalLoop=1;jettySize=auto;html=1;strokeColor=default;align=center;verticalAlign=middle;fontFamily=Helvetica;fontSize=11;fontColor=default;labelBackgroundColor=default;endArrow=none;endFill=0;dashed=1;" edge="1" parent="1" source="wNUU-mUBWav2Mn1h4RWF-33" target="wNUU-mUBWav2Mn1h4RWF-37">
          <mxGeometry relative="1" as="geometry" />
        </mxCell>
        <mxCell id="wNUU-mUBWav2Mn1h4RWF-41" style="edgeStyle=none;shape=connector;rounded=0;orthogonalLoop=1;jettySize=auto;html=1;strokeColor=default;align=center;verticalAlign=middle;fontFamily=Helvetica;fontSize=11;fontColor=default;labelBackgroundColor=default;endArrow=none;endFill=0;" edge="1" parent="1" source="wNUU-mUBWav2Mn1h4RWF-33" target="wNUU-mUBWav2Mn1h4RWF-36">
          <mxGeometry relative="1" as="geometry" />
        </mxCell>
        <mxCell id="wNUU-mUBWav2Mn1h4RWF-33" value="&lt;span id=&quot;docs-internal-guid-b2d54f66-7fff-5687-37bf-8b39f0719b1a&quot;&gt;&lt;span style=&quot;font-size: 12pt; font-family: Calibri, sans-serif; background-color: transparent; font-variant-numeric: normal; font-variant-east-asian: normal; font-variant-alternates: normal; font-variant-position: normal; font-variant-emoji: normal; vertical-align: baseline; white-space-collapse: preserve;&quot;&gt;PRODUTOR&lt;/span&gt;&lt;/span&gt;" style="whiteSpace=wrap;html=1;align=center;fontFamily=Helvetica;fontSize=11;fontColor=default;labelBackgroundColor=default;" vertex="1" parent="1">
          <mxGeometry x="300" y="500" width="100" height="40" as="geometry" />
        </mxCell>
        <mxCell id="wNUU-mUBWav2Mn1h4RWF-34" value="&lt;span id=&quot;docs-internal-guid-8cafcc89-7fff-78b6-0d9a-813812813ad6&quot;&gt;&lt;span style=&quot;font-size: 12pt; font-family: Calibri, sans-serif; background-color: transparent; font-variant-numeric: normal; font-variant-east-asian: normal; font-variant-alternates: normal; font-variant-position: normal; font-variant-emoji: normal; vertical-align: baseline; white-space-collapse: preserve;&quot;&gt;Nome&lt;/span&gt;&lt;/span&gt;" style="ellipse;whiteSpace=wrap;html=1;align=center;fontFamily=Helvetica;fontSize=11;fontColor=default;labelBackgroundColor=default;" vertex="1" parent="1">
          <mxGeometry x="220" y="600" width="100" height="40" as="geometry" />
        </mxCell>
        <mxCell id="wNUU-mUBWav2Mn1h4RWF-35" value="&lt;span id=&quot;docs-internal-guid-d2da87bc-7fff-96f9-a4d0-bf21345c0ce1&quot;&gt;&lt;span style=&quot;font-size: 12pt; font-family: Calibri, sans-serif; background-color: transparent; font-variant-numeric: normal; font-variant-east-asian: normal; font-variant-alternates: normal; font-variant-position: normal; font-variant-emoji: normal; text-decoration-skip-ink: none; vertical-align: baseline; white-space-collapse: preserve;&quot;&gt;NContribuinte&lt;/span&gt;&lt;/span&gt;" style="ellipse;whiteSpace=wrap;html=1;align=center;fontStyle=4;fontFamily=Helvetica;fontSize=11;fontColor=default;labelBackgroundColor=default;" vertex="1" parent="1">
          <mxGeometry x="340" y="610" width="100" height="40" as="geometry" />
        </mxCell>
        <mxCell id="wNUU-mUBWav2Mn1h4RWF-36" value="&lt;span id=&quot;docs-internal-guid-aed1f9fe-7fff-bc9a-0d7f-64c67cd5fec5&quot;&gt;&lt;span style=&quot;font-size: 12pt; font-family: Calibri, sans-serif; background-color: transparent; font-variant-numeric: normal; font-variant-east-asian: normal; font-variant-alternates: normal; font-variant-position: normal; font-variant-emoji: normal; vertical-align: baseline; white-space-collapse: preserve;&quot;&gt;DataNascimento&lt;/span&gt;&lt;/span&gt;" style="ellipse;whiteSpace=wrap;html=1;align=center;fontFamily=Helvetica;fontSize=11;fontColor=default;labelBackgroundColor=default;" vertex="1" parent="1">
          <mxGeometry x="450" y="585" width="100" height="40" as="geometry" />
        </mxCell>
        <mxCell id="wNUU-mUBWav2Mn1h4RWF-37" value="&lt;span id=&quot;docs-internal-guid-2ebb92ab-7fff-d668-7bc4-3486c3f004b3&quot;&gt;&lt;span style=&quot;font-size: 12pt; font-family: Calibri, sans-serif; background-color: transparent; font-variant-numeric: normal; font-variant-east-asian: normal; font-variant-alternates: normal; font-variant-position: normal; font-variant-emoji: normal; vertical-align: baseline; white-space-collapse: preserve;&quot;&gt;Idade&lt;/span&gt;&lt;/span&gt;" style="ellipse;whiteSpace=wrap;html=1;align=center;dashed=1;fontFamily=Helvetica;fontSize=11;fontColor=default;labelBackgroundColor=default;" vertex="1" parent="1">
          <mxGeometry x="470" y="530" width="100" height="40" as="geometry" />
        </mxCell>
        <mxCell id="wNUU-mUBWav2Mn1h4RWF-38" style="edgeStyle=none;shape=connector;rounded=0;orthogonalLoop=1;jettySize=auto;html=1;entryX=0.6;entryY=0;entryDx=0;entryDy=0;entryPerimeter=0;strokeColor=default;align=center;verticalAlign=middle;fontFamily=Helvetica;fontSize=11;fontColor=default;labelBackgroundColor=default;endArrow=none;endFill=0;" edge="1" parent="1" source="wNUU-mUBWav2Mn1h4RWF-33" target="wNUU-mUBWav2Mn1h4RWF-34">
          <mxGeometry relative="1" as="geometry" />
        </mxCell>
        <mxCell id="wNUU-mUBWav2Mn1h4RWF-47" style="edgeStyle=none;shape=connector;rounded=0;orthogonalLoop=1;jettySize=auto;html=1;entryX=1;entryY=0;entryDx=0;entryDy=0;strokeColor=default;align=center;verticalAlign=middle;fontFamily=Helvetica;fontSize=11;fontColor=default;labelBackgroundColor=default;endArrow=none;endFill=0;" edge="1" parent="1" source="wNUU-mUBWav2Mn1h4RWF-42" target="wNUU-mUBWav2Mn1h4RWF-43">
          <mxGeometry relative="1" as="geometry" />
        </mxCell>
        <mxCell id="wNUU-mUBWav2Mn1h4RWF-48" style="edgeStyle=none;shape=connector;rounded=0;orthogonalLoop=1;jettySize=auto;html=1;strokeColor=default;align=center;verticalAlign=middle;fontFamily=Helvetica;fontSize=11;fontColor=default;labelBackgroundColor=default;endArrow=none;endFill=0;" edge="1" parent="1" source="wNUU-mUBWav2Mn1h4RWF-42" target="wNUU-mUBWav2Mn1h4RWF-44">
          <mxGeometry relative="1" as="geometry" />
        </mxCell>
        <mxCell id="wNUU-mUBWav2Mn1h4RWF-49" style="edgeStyle=none;shape=connector;rounded=0;orthogonalLoop=1;jettySize=auto;html=1;entryX=0.5;entryY=0;entryDx=0;entryDy=0;strokeColor=default;align=center;verticalAlign=middle;fontFamily=Helvetica;fontSize=11;fontColor=default;labelBackgroundColor=default;endArrow=none;endFill=0;" edge="1" parent="1" source="wNUU-mUBWav2Mn1h4RWF-42" target="wNUU-mUBWav2Mn1h4RWF-45">
          <mxGeometry relative="1" as="geometry" />
        </mxCell>
        <mxCell id="wNUU-mUBWav2Mn1h4RWF-42" value="&lt;span id=&quot;docs-internal-guid-49eed530-7fff-8678-ce6c-9f40c225c63d&quot;&gt;&lt;span style=&quot;font-size: 12pt; font-family: Calibri, sans-serif; background-color: transparent; font-variant-numeric: normal; font-variant-east-asian: normal; font-variant-alternates: normal; font-variant-position: normal; font-variant-emoji: normal; vertical-align: baseline; white-space-collapse: preserve;&quot;&gt;ORCAMENTO&lt;/span&gt;&lt;/span&gt;" style="whiteSpace=wrap;html=1;align=center;fontFamily=Helvetica;fontSize=11;fontColor=default;labelBackgroundColor=default;" vertex="1" parent="1">
          <mxGeometry x="-100" y="460" width="100" height="40" as="geometry" />
        </mxCell>
        <mxCell id="wNUU-mUBWav2Mn1h4RWF-43" value="&lt;span id=&quot;docs-internal-guid-e82b96cc-7fff-b7a6-3cf5-91d06b718818&quot;&gt;&lt;span style=&quot;font-size: 12pt; font-family: Calibri, sans-serif; background-color: transparent; font-variant-numeric: normal; font-variant-east-asian: normal; font-variant-alternates: normal; font-variant-position: normal; font-variant-emoji: normal; text-decoration-skip-ink: none; vertical-align: baseline; white-space-collapse: preserve;&quot;&gt;Id&lt;/span&gt;&lt;/span&gt;" style="ellipse;whiteSpace=wrap;html=1;align=center;fontStyle=4;fontFamily=Helvetica;fontSize=11;fontColor=default;labelBackgroundColor=default;" vertex="1" parent="1">
          <mxGeometry x="-260" y="480" width="100" height="40" as="geometry" />
        </mxCell>
        <mxCell id="wNUU-mUBWav2Mn1h4RWF-44" value="&lt;span id=&quot;docs-internal-guid-d3ddc39b-7fff-d588-cdc6-508e87e0b5f1&quot;&gt;&lt;span style=&quot;font-size: 12pt; font-family: Calibri, sans-serif; background-color: transparent; font-variant-numeric: normal; font-variant-east-asian: normal; font-variant-alternates: normal; font-variant-position: normal; font-variant-emoji: normal; vertical-align: baseline; white-space-collapse: preserve;&quot;&gt;Valor&lt;/span&gt;&lt;/span&gt;" style="ellipse;whiteSpace=wrap;html=1;align=center;fontFamily=Helvetica;fontSize=11;fontColor=default;labelBackgroundColor=default;" vertex="1" parent="1">
          <mxGeometry x="-210" y="540" width="100" height="40" as="geometry" />
        </mxCell>
        <mxCell id="wNUU-mUBWav2Mn1h4RWF-45" value="&lt;span id=&quot;docs-internal-guid-97309ff8-7fff-f7e3-74d9-a23491daf4ee&quot;&gt;&lt;span style=&quot;font-size: 12pt; font-family: Calibri, sans-serif; background-color: transparent; font-variant-numeric: normal; font-variant-east-asian: normal; font-variant-alternates: normal; font-variant-position: normal; font-variant-emoji: normal; vertical-align: baseline; white-space-collapse: preserve;&quot;&gt;Aprovado ?&lt;/span&gt;&lt;/span&gt;" style="ellipse;whiteSpace=wrap;html=1;align=center;fontFamily=Helvetica;fontSize=11;fontColor=default;labelBackgroundColor=default;" vertex="1" parent="1">
          <mxGeometry x="-90" y="545" width="100" height="40" as="geometry" />
        </mxCell>
      </root>
    </mxGraphModel>
  </diagram>
</mxfile>
